<?xml version="1.0" encoding="utf-8"?>
<!-- Generator: Adobe Illustrator 16.0.4, SVG Export Plug-In . SVG Version: 6.00 Build 0)  -->
<!DOCTYPE svg PUBLIC "-//W4C//DTD SVG 1.1//EN" "http://www.w3.org/Graphics/SVG/1.1/DTD/svg11.dtd">
<svg version="1.1" id="レイヤー_1" xmlns="http://www.w3.org/2000/svg" xmlns:xlink="http://www.w3.org/1999/xlink" x="0px"
y="0px" width="120px" height="22px" viewBox="0 0 120 22" enable-background="new 0 0 120 22" xml:space="preserve">
		<path fill="#F7F9F9" d="M6.641,18.762c0.616,0.698,1.485,1.048,2.606,1.048c1.457,0,2.438-0.286,2.942-0.856
			c0.504-0.572,0.756-1.524,0.756-2.857c0-0.953-0.168-2.096-0.504-3.43l1.766-0.285c0.392,1.777,0.588,2.984,0.588,3.619
			c0,1.968-0.42,3.429-1.261,4.382c-0.896,1.016-2.354,1.522-4.372,1.522c-1.625,0-2.914-0.539-3.866-1.618
			c-0.897-1.016-1.289-2.413-1.177-4.19l0.168-2.857H0v-1.81h4.54l0.336-3.715H0.925v-1.81h4.203l0.42-5.428l1.849,0.285
			c0.616,0.19,0.672,0.445,0.168,0.763l-0.672,4.38h3.278v1.81H6.641l-0.336,3.715h4.035v1.81H6.053l-0.168,2.381
			C5.772,17.016,6.025,18.063,6.641,18.762z"/>
		<path fill="#F7F9F9" d="M18.747,7.868c4.987-0.381,8.182-0.698,9.583-0.952l0.673-0.381l1.429,1.619
			c-2.129,1.714-3.923,3.46-5.38,5.237c1.121-0.189,1.849-0.222,2.186-0.095c0.617,0.254,0.925,0.793,0.925,1.619v3.238
			c0,0.762,0.336,1.111,1.009,1.048h4.876l-0.336,2.095h-4.203c-2.018,0-3.027-0.983-3.027-2.952v-2.381
			c0-0.763-0.42-1.144-1.261-1.144c-0.729,0-1.457,0.381-2.186,1.144c-1.457,1.523-2.83,3.174-4.119,4.952l-1.513-1.144
			c2.69-3.556,5.856-7.174,9.499-10.856l-7.565,1.048L18.747,7.868z M28.834,4.345c-2.522-0.063-5.128-0.254-7.818-0.571l0.252-2.19
			c2.129,0.508,4.735,0.762,7.818,0.762L28.834,4.345z"/>
		<path fill="#F7F9F9" d="M36.82,7.429l-0.252-2c1.401,0,2.802-0.063,4.203-0.19c0.28-1.144,0.617-2.667,1.009-4.571l1.513,0.571
			c0.561,0.254,0.561,0.508,0,0.762l-0.756,3.048c0.953-0.127,1.934-0.35,2.942-0.667l0.42,2c-1.569,0.381-2.858,0.603-3.867,0.667
			c-0.897,3.238-2.214,6.762-3.951,10.571l-1.682-0.952c1.738-3.492,2.999-6.635,3.783-9.429C39.286,7.365,38.165,7.429,36.82,7.429
			z M49.178,9.523c0.617,0.128,0.673,0.381,0.168,0.763v5.523c1.4,0.508,2.857,1.206,4.371,2.096l-1.009,1.809
			c-1.233-0.825-2.353-1.429-3.362-1.809c-0.168,1.333-0.533,2.317-1.093,2.952C47.581,21.619,46.656,22,45.479,22
			c-1.569,0-2.662-0.35-3.279-1.048c-0.561-0.635-0.841-1.46-0.841-2.476c0-0.826,0.28-1.557,0.841-2.191
			c0.729-0.825,1.793-1.237,3.195-1.237c0.953,0,1.709,0.095,2.27,0.286V9.523H49.178z M45.395,16.762
			c-0.897,0-1.513,0.19-1.85,0.571c-0.28,0.317-0.42,0.698-0.42,1.144c0,0.444,0.112,0.794,0.336,1.047
			c0.336,0.382,0.925,0.571,1.765,0.571c0.785,0,1.345-0.189,1.682-0.571c0.504-0.57,0.756-1.364,0.756-2.38
			C46.992,16.889,46.235,16.762,45.395,16.762z M48.253,4.381c1.569,0.571,3.446,1.334,5.632,2.285l-0.757,2.001
			c-2.354-1.143-4.203-1.937-5.548-2.382L48.253,4.381z"/>
		<path fill="#F7F9F9" d="M62.712,18.857c-0.785,1.079-1.569,1.618-2.354,1.618c-1.401,0-2.438-0.92-3.111-2.762
			c-0.392-1.079-0.588-3.396-0.588-6.951c0-2.54,0.112-5.112,0.336-7.716l1.766,0.477c0.672,0.191,0.7,0.509,0.084,0.952
			c-0.224,2.35-0.336,4.477-0.336,6.381c0,2.604,0.14,4.445,0.42,5.524C59.209,17.461,59.63,18,60.19,18
			c0.617,0,1.149-0.508,1.598-1.523c0.28-0.636,0.56-1.396,0.84-2.286l1.682,1.333C63.805,16.984,63.272,18.096,62.712,18.857z
			 M73.893,15.238l-2.27,0.666C70.95,11.461,69.577,8,67.503,5.523l1.766-1.143C71.791,7.365,73.332,10.984,73.893,15.238z"/>
		<path fill="#F7F9F9" d="M90.874,18.19v2.096h-9.247c-1.738,0-2.942-0.381-3.615-1.144c-0.672-0.762-1.009-1.777-1.009-3.047
			c0-0.698,0.112-1.524,0.336-2.477l1.933,0.286c-0.28,1.016-0.42,1.746-0.42,2.19c0,0.571,0.168,1.048,0.504,1.429
			c0.393,0.443,1.177,0.666,2.354,0.666H90.874z M78.264,6.285V4.19h10.928v2.095H78.264z M89.613,2.19
			c0.953,0.571,2.018,1.365,3.194,2.381l-0.756,1.333c-1.233-1.016-2.298-1.81-3.195-2.381L89.613,2.19z M90.79,0
			c0.953,0.571,2.018,1.365,3.194,2.381l-0.756,1.334c-1.233-1.017-2.298-1.81-3.194-2.382L90.79,0z"/>
		<path fill="#F7F9F9" d="M107.687,21.582l-1.765-1.142c1.737-1.842,2.886-4.128,3.446-6.857c-1.961-0.826-3.951-1.396-5.968-1.714
			c-1.513,3.682-2.522,5.809-3.027,6.381c-0.672,0.762-1.457,1.142-2.354,1.142c-0.673,0-1.233-0.254-1.682-0.761
			c-0.504-0.572-0.756-1.429-0.756-2.572c0-1.333,0.561-2.635,1.681-3.904c1.233-1.396,2.886-2.095,4.96-2.095
			c0.673-1.969,1.289-3.81,1.85-5.524c-1.569,0.444-3.139,0.857-4.708,1.238l-0.756-1.905c1.85-0.254,3.615-0.603,5.296-1.048
			l1.009-0.476l1.429,1.238c0.56,0.381,0.532,0.666-0.084,0.857c-0.729,1.46-1.513,3.364-2.354,5.714
			c1.793,0.254,3.699,0.762,5.716,1.523c0.112-1.523,0.14-3.396,0.084-5.619l1.598,0.381c0.617,0.128,0.672,0.382,0.168,0.763
			c0,2.095-0.056,3.81-0.168,5.143c1.065,0.444,2.297,1.079,3.699,1.904l-0.841,1.905c-1.177-0.762-2.241-1.396-3.194-1.905
			C110.404,17.106,109.312,19.551,107.687,21.582z M98.523,13.202c-0.897,1.016-1.345,1.968-1.345,2.856
			c0,0.382,0.112,0.699,0.336,0.952c0.168,0.191,0.42,0.286,0.756,0.286c0.504,0,0.953-0.35,1.345-1.048
			c0.336-0.571,1.009-2.031,2.018-4.38C100.345,11.869,99.308,12.313,98.523,13.202z"/>
</svg>
