<?xml version="1.0" encoding="utf-8"?>
<!-- Generator: Adobe Illustrator 16.0.4, SVG Export Plug-In . SVG Version: 6.00 Build 0)  -->
<!DOCTYPE svg PUBLIC "-//W4C//DTD SVG 1.1//EN" "http://www.w3.org/Graphics/SVG/1.1/DTD/svg11.dtd">
<svg version="1.1" id="レイヤー_1" xmlns="http://www.w3.org/2000/svg" xmlns:xlink="http://www.w3.org/1999/xlink" x="0px"
y="0px" width="91px" height="22px" viewBox="0 0 91 22" enable-background="new 0 0 91 22" xml:space="preserve">
		<path fill="#F7F9F9" d="M6.443,18.842c0.598,0.703,1.439,1.053,2.527,1.053c1.414,0,2.366-0.286,2.855-0.861
			c0.488-0.572,0.733-1.53,0.733-2.869c0-0.956-0.163-2.104-0.488-3.443l1.712-0.285c0.38,1.784,0.57,2.996,0.57,3.633
			c0,1.977-0.408,3.442-1.223,4.401C12.258,21.488,10.845,22,8.888,22c-1.577,0-2.826-0.544-3.75-1.627
			c-0.871-1.022-1.251-2.421-1.142-4.209l0.163-2.868H0v-1.818h4.404l0.325-3.729H0.897V5.932h4.077l0.408-5.453l1.793,0.287
			C7.775,0.958,7.829,1.211,7.339,1.53L6.687,5.932h3.18v1.817H6.443l-0.327,3.729h3.914v1.818H5.872l-0.163,2.39
			C5.6,17.09,5.844,18.141,6.443,18.842z"/>
		<path fill="#F7F9F9" d="M18.184,7.939c4.839-0.382,7.936-0.701,9.296-0.956L28.133,6.6l1.386,1.627
			c-2.066,1.721-3.807,3.475-5.22,5.26c1.087-0.19,1.793-0.222,2.121-0.098c0.597,0.258,0.897,0.799,0.897,1.628v3.254
			c0,0.763,0.326,1.115,0.978,1.053h4.731l-0.328,2.101h-4.076c-1.957,0-2.937-0.988-2.937-2.963v-2.393
			c0-0.766-0.408-1.148-1.222-1.148c-0.707,0-1.414,0.383-2.12,1.148c-1.414,1.53-2.747,3.189-3.997,4.974l-1.467-1.147
			c2.61-3.569,5.681-7.206,9.214-10.902l-7.339,1.051L18.184,7.939z M27.97,4.401c-2.447-0.063-4.974-0.257-7.583-0.575l0.245-2.199
			c2.065,0.509,4.593,0.765,7.583,0.765L27.97,4.401z"/>
		<path fill="#F7F9F9" d="M48.109,18.65c0.652-0.764,0.978-1.783,0.978-3.06c0-1.403-0.354-2.521-1.061-3.349
			C47.321,11.415,46.206,11,44.685,11c-1.794,0-3.182,0.415-4.16,1.242c-0.923,0.766-2.121,2.137-3.588,4.113l-1.385-1.436
			c3.914-4.59,6.875-8.414,8.888-11.477c-1.794,0.258-3.589,0.479-5.383,0.67l-0.57-2.199c2.664,0,5.027-0.159,7.093-0.478
			l0.734-0.384l0.897,1.053c0.597,0.637,0.462,1.053-0.408,1.244c-1.631,2.168-3.261,4.302-4.894,6.408
			c1.143-0.319,2.093-0.479,2.854-0.479c2.066,0,3.587,0.572,4.566,1.721c0.978,1.148,1.468,2.614,1.468,4.4
			c0,1.849-0.435,3.282-1.306,4.304C48.19,21.234,46.532,22,44.521,22c-1.903,0-3.289-0.512-4.159-1.53
			c-0.706-0.83-1.06-1.819-1.06-2.967c0-0.763,0.244-1.435,0.734-2.009c0.543-0.636,1.169-0.956,1.875-0.956
			c0.979,0,1.795,0.382,2.447,1.147c0.761,0.895,1.277,2.295,1.549,4.209C46.776,19.768,47.511,19.351,48.109,18.65z M43.298,16.834
			c-0.381-0.445-0.761-0.67-1.142-0.67c-0.434,0-0.761,0.127-0.978,0.383c-0.271,0.32-0.408,0.671-0.408,1.052
			c0,0.575,0.217,1.117,0.652,1.627c0.543,0.639,1.25,0.957,2.121,0.957c0.216,0,0.461,0,0.733,0
			C44.113,18.524,43.788,17.409,43.298,16.834z"/>
		<path fill="#F7F9F9" d="M67.598,18.271v2.103h-8.97c-1.685,0-2.854-0.383-3.506-1.147c-0.653-0.765-0.979-1.786-0.979-3.062
			c0-0.7,0.109-1.53,0.327-2.485l1.875,0.286c-0.271,1.02-0.408,1.755-0.408,2.199c0,0.576,0.163,1.054,0.489,1.435
			c0.381,0.446,1.141,0.672,2.284,0.672H67.598z M55.366,6.314V4.209h10.602v2.105H55.366z M66.375,2.199
			c0.924,0.575,1.957,1.372,3.099,2.392l-0.734,1.341c-1.195-1.021-2.229-1.818-3.098-2.393L66.375,2.199z M67.516,0
			c0.924,0.576,1.957,1.372,3.099,2.392l-0.734,1.338c-1.196-1.018-2.229-1.815-3.099-2.389L67.516,0z"/>
		<path fill="#F7F9F9" d="M83.905,21.713l-1.712-1.149c1.685-1.848,2.8-4.143,3.343-6.885c-1.903-0.83-3.832-1.402-5.789-1.722
			c-1.469,3.698-2.447,5.834-2.936,6.408c-0.652,0.764-1.414,1.146-2.283,1.146c-0.651,0-1.197-0.253-1.631-0.763
			c-0.49-0.574-0.734-1.436-0.734-2.584c0-1.338,0.543-2.645,1.632-3.922c1.196-1.4,2.799-2.102,4.811-2.102
			c0.652-1.979,1.25-3.826,1.795-5.55c-1.523,0.447-3.046,0.862-4.567,1.245l-0.734-1.913c1.794-0.256,3.506-0.605,5.136-1.052
			l0.979-0.479l1.386,1.243c0.543,0.385,0.516,0.67-0.081,0.862c-0.708,1.465-1.469,3.379-2.285,5.737
			c1.739,0.256,3.588,0.766,5.546,1.531c0.109-1.531,0.136-3.411,0.081-5.645l1.549,0.385c0.599,0.126,0.653,0.381,0.165,0.763
			c0,2.105-0.056,3.826-0.165,5.167c1.033,0.447,2.229,1.084,3.589,1.913l-0.815,1.912c-1.142-0.767-2.175-1.402-3.1-1.912
			C86.542,17.218,85.481,19.673,83.905,21.713z M75.017,13.296c-0.871,1.021-1.304,1.977-1.304,2.868
			c0,0.383,0.108,0.703,0.326,0.957c0.163,0.191,0.408,0.288,0.733,0.288c0.489,0,0.923-0.352,1.305-1.054
			c0.326-0.573,0.979-2.038,1.957-4.398C76.784,11.957,75.778,12.402,75.017,13.296z"/>
</svg>
