<?xml version="1.0" encoding="utf-8"?>
<!-- Generator: Adobe Illustrator 16.0.4, SVG Export Plug-In . SVG Version: 6.00 Build 0)  -->
<!DOCTYPE svg PUBLIC "-//W3C//DTD SVG 1.1//EN" "http://www.w3.org/Graphics/SVG/1.1/DTD/svg11.dtd">
<svg version="1.1" id="レイヤー_1" xmlns="http://www.w3.org/2000/svg" xmlns:xlink="http://www.w3.org/1999/xlink" x="0px"
	 y="0px" width="176px" height="22px" viewBox="0 0 176 22" enable-background="new 0 0 176 22"
	 xml:space="preserve">
		<path fill="#F7F9F9" d="M10.031,7.831c2.708,3.001,5.748,4.921,9.119,5.761l-0.498,2.07c-1.713-0.54-2.957-1.08-3.73-1.62v6.842
			h-1.658v-0.54h-7.71v0.899H3.896v-6.751c-1.105,0.84-2.156,1.41-3.15,1.71L0,14.313c4.311-1.801,7.212-4.411,8.705-7.831
			l1.741,0.63c0.221,0.24,0.138,0.39-0.249,0.45L10.031,7.831z M16.415,4.501H2.321v2.61H0.663V2.79h7.71V0.54h1.824
			c0.442,0.06,0.47,0.24,0.083,0.54v1.71h7.793v4.141h-1.658V4.501z M1.161,9.092C2.763,8.491,4.338,7.261,5.886,5.4l1.243,1.261
			c0.332,0.3,0.221,0.45-0.332,0.45c-1.769,1.86-3.344,3.09-4.725,3.69L1.161,9.092z M9.202,9.182
			c-1.105,1.74-2.542,3.271-4.311,4.591h9.617C12.463,12.632,10.694,11.102,9.202,9.182z M13.264,18.633v-3.15h-7.71v3.15H13.264z
			 M17.99,8.821l-0.746,1.801c-1.935-0.78-3.703-1.921-5.306-3.421l0.995-1.351C14.204,6.931,15.89,7.921,17.99,8.821z"/>
		<path fill="#F7F9F9" d="M31.254,6.661c0.442,0.12,0.442,0.3,0,0.54c-0.11,0.54-0.249,1.05-0.415,1.53h8.788v1.71h-6.3
			c1.934,1.44,4.311,2.431,7.129,2.971l-0.415,1.891c-1.105-0.24-1.879-0.48-2.321-0.721v6.121h-1.658v-0.99h-2.901v1.261h-1.658
			v-7.201h4.311c-1.603-0.721-3.067-1.83-4.394-3.331h-1.327c-0.884,1.381-2.073,2.49-3.565,3.331h3.316v7.021h-1.658v-1.08h-2.819
			v1.351H23.71v-5.941c-0.498,0.301-1.244,0.57-2.238,0.811l-0.581-1.891c2.984-0.479,5.417-1.68,7.295-3.601H21.72v-1.71h7.461
			c0.332-0.66,0.553-1.38,0.664-2.16L31.254,6.661z M29.596,7.111h-1.658v-0.45h-3.233v0.811h-1.658V1.17h6.549V7.111z
			 M27.938,5.221V2.61h-3.233v2.61H27.938z M28.187,18.273v-3.061h-2.819v3.061H28.187z M31.668,1.17H38.3v5.941h-1.658v-0.45
			h-3.316v0.811h-1.658V1.17z M36.062,18.273v-3.061h-2.901v3.061H36.062z M36.643,2.61h-3.316v2.61h3.316V2.61z"/>
		<path fill="#F7F9F9" d="M43.274,10.172l-0.912-1.711c2.487-2.04,4.255-4.681,5.306-7.921l1.658,0.45
			c0.221,0.24,0.138,0.39-0.249,0.45c-0.166,0.54-0.442,1.2-0.829,1.98h10.86v10.621c0,1.021-0.47,1.53-1.409,1.53h-2.819
			l-0.166-1.71h2.487c0.166,0,0.249-0.09,0.249-0.271V5.131h-9.865C46.038,7.472,44.601,9.151,43.274,10.172z M46.259,9.092V7.381
			h7.544v6.932h-1.658v-0.54h-5.057v4.501c0,0.42,0.166,0.63,0.498,0.63h10.528c0.608,0,0.967-0.24,1.078-0.721l0.497-1.89
			l1.741,0.63l-0.581,2.25c-0.221,0.96-0.829,1.44-1.824,1.44H46.922c-0.995,0-1.492-0.54-1.492-1.62v-6.932h6.715v-2.97H46.259z"/>
		<path fill="#F7F9F9" d="M75.44,19.713c-2.984,0.841-5.416,1.44-7.295,1.801c-0.166,0.54-0.332,0.63-0.498,0.27l-0.663-2.16
			l2.238-0.27v-2.251c-1.547,1.08-3.288,1.86-5.223,2.341l-0.498-1.891c2.819-0.6,5.223-1.771,7.212-3.511h-6.549v-1.71h8.124v-1.53
			h1.575c0.442,0.06,0.47,0.24,0.083,0.54v0.99h8.207v1.71h-7.461c0.498,0.96,1.133,1.771,1.907,2.431l2.404-1.98l1.326,1.17
			c0.055,0.301-0.083,0.391-0.415,0.271l-2.238,1.44c0.884,0.9,2.459,1.62,4.726,2.16l-0.664,1.8
			c-4.034-1.02-6.963-3.45-8.788-7.291h-0.249c-0.498,0.66-1.105,1.32-1.824,1.98v3.15c1.437-0.24,2.929-0.6,4.477-1.08
			L75.44,19.713z M64.663,10.172l-0.912-1.801c1.271-0.42,2.735-1.2,4.394-2.34V0.63h1.575c0.442,0.061,0.47,0.24,0.083,0.54v9.812
			h-1.658V7.921c-1.161,0.841-2.183,1.501-3.067,1.98C65.022,10.321,64.884,10.412,64.663,10.172z M65.824,2.07
			c0.719,0.9,1.188,1.98,1.41,3.24l-1.575,0.721c-0.387-1.141-0.857-2.221-1.41-3.241L65.824,2.07z M77.016,0.99v2.61h5.306v1.71
			h-5.306v3.241h4.228v1.71h-9.865v-1.71h3.979V5.311h-4.725v-1.71h4.725V0.45h1.575C77.375,0.51,77.402,0.69,77.016,0.99z"/>
		<path fill="#F7F9F9" d="M90.777,8.911v3.871h-3.565V8.911H90.777z"/>
		<path fill="#F7F9F9" d="M96.663,9.001l-0.912-1.529c1.658-0.66,3.15-1.44,4.477-2.341l0.829,1.351
			c-1.327,0.96-2.598,1.77-3.813,2.43C97.133,9.512,96.939,9.542,96.663,9.001z M96.083,19.533c2.376-0.36,4.338-1.05,5.886-2.07
			l1.244,1.26c0.221,0.421,0.055,0.54-0.498,0.36c-1.769,0.96-3.786,1.681-6.052,2.16L96.083,19.533z M97.99,0.99
			c0.829,0.42,1.741,0.93,2.736,1.53l-1.078,1.53c-0.718-0.48-1.63-0.99-2.735-1.53L97.99,0.99z M102.383,9.001h8.373v8.372H98.984
			V9.001h2.984l-0.829-1.529c3.04-0.48,4.615-1.801,4.725-3.961h-1.409c-0.608,1.02-1.271,1.83-1.99,2.431l-1.161-0.99
			c1.271-1.261,2.293-2.821,3.067-4.681l1.409,0.54c0.221,0.239,0.138,0.39-0.249,0.449l-0.332,0.811h6.632l0.249-0.271l1.326,0.99
			l-0.415,0.36c-0.387,0.721-1.078,1.62-2.072,2.7l-1.244-0.899c0.442-0.421,0.857-0.9,1.244-1.44h-3.482
			c0.939,1.98,3.178,3.33,6.715,4.051l-0.663,1.71c-3.04-0.6-5.167-1.86-6.383-3.78C106.501,7.171,104.926,8.342,102.383,9.001z
			 M109.099,11.432v-1.35h-8.456v1.35H109.099z M109.099,13.862v-1.351h-8.456v1.351H109.099z M109.099,16.293v-1.351h-8.456v1.351
			H109.099z M112.912,21.063c-2.542-0.42-4.67-1.2-6.384-2.341l1.244-1.26c1.769,0.96,3.648,1.561,5.637,1.8L112.912,21.063z"/>
		<path fill="#F7F9F9" d="M120.871,13.862c-0.608,2.101-1.465,4.23-2.57,6.391c0.056,0.66-0.055,0.841-0.332,0.54l-1.575-1.62
			c1.161-1.92,2.183-4.11,3.067-6.571L120.871,13.862z M118.052,6.391c1.161,0.601,2.155,1.381,2.984,2.341l-1.243,1.891
			c-0.829-1.021-1.769-1.831-2.819-2.431L118.052,6.391z M120.373,5.4c-0.829-0.96-1.713-1.74-2.653-2.34l0.995-1.801
			c1.105,0.54,2.018,1.291,2.736,2.251L120.373,5.4z M128.995,14.132h-1.824h-1.824V5.581h2.901l0.166-2.341h-4.643v10.442
			c0,2.82-0.774,5.311-2.321,7.471l-1.326-1.62c1.326-1.801,1.989-3.961,1.989-6.481V1.53h13.099v1.71h-4.808l-0.581,2.341h4.145
			v8.551h-3.316v5.491c0,0.96-0.442,1.44-1.326,1.44h-1.493l-0.332-1.71h1.078c0.276,0,0.415-0.181,0.415-0.54V14.132z
			 M125.264,20.344l-1.409-1.261c0.939-1.26,1.658-2.67,2.155-4.23l1.658,0.9c0.221,0.239,0.138,0.39-0.249,0.449
			C126.978,17.583,126.259,18.963,125.264,20.344z M126.756,7.291v1.801h5.803V7.291H126.756z M126.756,10.531v1.891h5.803v-1.891
			H126.756z M134.466,19.983c-1.216-1.381-2.238-2.82-3.067-4.321l1.492-0.989c1.05,1.74,1.99,2.97,2.819,3.69L134.466,19.983z"/>
		<path fill="#F7F9F9" d="M152.207,17.192v1.98h-9.119c-1.713,0-2.901-0.359-3.564-1.08c-0.664-0.72-0.995-1.68-0.995-2.88
			c0-0.66,0.111-1.44,0.332-2.341l1.907,0.271c-0.276,0.96-0.414,1.649-0.414,2.07c0,0.54,0.166,0.989,0.497,1.35
			c0.387,0.42,1.161,0.63,2.321,0.63H152.207z M139.772,5.941v-1.98h10.777v1.98H139.772z M150.964,2.07
			c0.939,0.54,1.989,1.29,3.15,2.25l-0.746,1.261c-1.216-0.96-2.267-1.71-3.15-2.251L150.964,2.07z M152.124,0
			c0.939,0.54,1.99,1.29,3.15,2.25l-0.746,1.261c-1.216-0.96-2.266-1.711-3.15-2.251L152.124,0z"/>
		<path fill="#F7F9F9" d="M168.787,20.399l-1.74-1.08c1.713-1.741,2.846-3.901,3.398-6.481c-1.935-0.78-3.896-1.32-5.886-1.62
			c-1.492,3.48-2.487,5.49-2.984,6.03c-0.663,0.721-1.438,1.081-2.321,1.081c-0.663,0-1.216-0.24-1.658-0.721
			c-0.497-0.54-0.746-1.35-0.746-2.431c0-1.26,0.553-2.49,1.658-3.69c1.216-1.32,2.847-1.98,4.892-1.98
			c0.663-1.86,1.271-3.601,1.823-5.221c-1.547,0.42-3.095,0.811-4.643,1.171l-0.746-1.801c1.824-0.24,3.565-0.57,5.223-0.99
			l0.995-0.45l1.409,1.171c0.553,0.359,0.525,0.63-0.083,0.81c-0.718,1.38-1.492,3.181-2.321,5.401
			c1.769,0.239,3.648,0.72,5.638,1.439c0.11-1.439,0.138-3.21,0.083-5.311l1.575,0.36c0.607,0.12,0.663,0.359,0.166,0.72
			c0,1.98-0.056,3.601-0.166,4.861c1.05,0.42,2.266,1.02,3.647,1.8l-0.829,1.801c-1.16-0.721-2.211-1.32-3.15-1.801
			C171.468,16.168,170.391,18.479,168.787,20.399z M159.751,12.478c-0.884,0.96-1.326,1.86-1.326,2.7c0,0.36,0.11,0.66,0.332,0.9
			c0.165,0.181,0.414,0.271,0.746,0.271c0.497,0,0.939-0.33,1.326-0.99c0.331-0.54,0.995-1.921,1.989-4.141
			C161.548,11.218,160.525,11.638,159.751,12.478z"/>
</svg>
