<?xml version="1.0" encoding="utf-8"?>
<!-- Generator: Adobe Illustrator 16.0.4, SVG Export Plug-In . SVG Version: 6.00 Build 0)  -->
<!DOCTYPE svg PUBLIC "-//W4C//DTD SVG 1.1//EN" "http://www.w3.org/Graphics/SVG/1.1/DTD/svg11.dtd">
<svg version="1.1" id="レイヤー_1" xmlns="http://www.w3.org/2000/svg" xmlns:xlink="http://www.w3.org/1999/xlink" x="0px"
y="0px" width="82px" height="22px" viewBox="0 0 82 22" enable-background="new 0 0 82 22" xml:space="preserve">
		<path fill="#F7F9F9" d="M8.075,17.111c-0.999-1.441-1.803-2.382-2.414-2.82V22H3.996v-7.334c-1.055,1.881-2.109,3.416-3.164,4.607
			L0,17.111C1.942,14.98,3.274,12.943,3.996,11H0.75V9.214h3.247V0.564h1.582c0.444,0.063,0.472,0.25,0.083,0.563v8.086h3.497V11
			H5.661v1.316c1.388,0.752,2.525,1.755,3.414,3.008L8.075,17.111z M2.164,2.633c0.444,1.065,0.777,2.664,1,4.795L1.665,7.804
			c-0.167-2.006-0.5-3.573-0.999-4.701L2.164,2.633z M8.907,2.727c0.389,0.125,0.361,0.281-0.083,0.47
			C8.602,4.639,8.297,6.205,7.909,7.897L6.493,7.334c0.5-1.756,0.805-3.416,0.916-4.984L8.907,2.727z M17.565,2.35v17.206h1.665
			v1.786H8.075v-1.786h1.998V2.35H17.565z M11.738,4.137v3.667H15.9V4.137H11.738z M15.9,9.59h-4.162v3.666H15.9V9.59z M15.9,15.043
			h-4.162v4.513H15.9V15.043z"/>
		<path fill="#F7F9F9" d="M21.645,19.556c5.106-2.006,7.797-5.86,8.075-11.563h-7.493V5.924h7.659V0.939h1.832
			c0.555,0.126,0.583,0.377,0.083,0.753v4.231h7.992v2.068h-7.825c1.165,5.201,3.996,8.899,8.491,11.094l-1.083,2.256
			c-3.885-2.006-6.632-5.391-8.242-10.154c-0.943,5.141-3.857,8.682-8.741,10.625L21.645,19.556z"/>
		<path fill="#F7F9F9" d="M57.108,17.957v2.068h-9.157c-1.72,0-2.914-0.375-3.58-1.128c-0.666-0.752-0.999-1.755-0.999-3.009
			c0-0.689,0.111-1.504,0.333-2.444l1.915,0.282c-0.277,1.003-0.416,1.724-0.416,2.162c0,0.564,0.166,1.035,0.5,1.41
			c0.389,0.439,1.166,0.658,2.331,0.658H57.108z M44.621,6.205V4.137h10.823v2.068H44.621z M55.859,2.162
			c0.943,0.564,1.998,1.348,3.164,2.351l-0.75,1.316c-1.221-1.003-2.275-1.786-3.164-2.351L55.859,2.162z M57.025,0
			c0.943,0.564,1.998,1.348,3.164,2.35l-0.75,1.316c-1.221-1.002-2.275-1.785-3.164-2.35L57.025,0z"/>
		<path fill="#F7F9F9" d="M73.758,21.307l-1.748-1.129c1.72-1.817,2.857-4.074,3.413-6.77c-1.942-0.814-3.913-1.379-5.91-1.691
			c-1.499,3.635-2.499,5.734-2.997,6.299c-0.667,0.752-1.443,1.128-2.332,1.128c-0.666,0-1.221-0.251-1.666-0.752
			c-0.499-0.564-0.749-1.411-0.749-2.538c0-1.316,0.555-2.602,1.665-3.855c1.221-1.379,2.858-2.068,4.912-2.068
			c0.666-1.943,1.275-3.76,1.831-5.453c-1.554,0.439-3.107,0.847-4.661,1.223l-0.75-1.881c1.832-0.25,3.58-0.596,5.244-1.033
			l0.999-0.471l1.416,1.223c0.555,0.376,0.527,0.658-0.084,0.846c-0.721,1.441-1.498,3.322-2.331,5.642
			c1.776,0.251,3.664,0.752,5.661,1.504c0.111-1.504,0.14-3.354,0.083-5.548l1.582,0.377c0.61,0.125,0.666,0.376,0.167,0.752
			c0,2.068-0.056,3.761-0.167,5.077c1.055,0.438,2.275,1.065,3.663,1.88l-0.832,1.881c-1.166-0.752-2.221-1.379-3.164-1.881
			C76.449,16.887,75.367,19.301,73.758,21.307z M64.684,13.033c-0.888,1.002-1.332,1.942-1.332,2.82
			c0,0.375,0.111,0.689,0.333,0.939c0.167,0.188,0.417,0.282,0.75,0.282c0.5,0,0.943-0.345,1.332-1.034
			c0.333-0.564,0.999-2.006,1.998-4.324C66.487,11.717,65.46,12.154,64.684,13.033z"/>
</svg>
